<?xml version="1.0" encoding="utf-8"?>
<!-- Generator: Adobe Illustrator 16.0.0, SVG Export Plug-In . SVG Version: 6.00 Build 0)  -->
<!DOCTYPE svg PUBLIC "-//W3C//DTD SVG 1.1//EN" "http://www.w3.org/Graphics/SVG/1.1/DTD/svg11.dtd">
<svg version="1.1" id="Calque_1" xmlns="http://www.w3.org/2000/svg" xmlns:xlink="http://www.w3.org/1999/xlink" x="0px" y="0px"
	 width="432px" height="432px" viewBox="0 0 432 432" enable-background="new 0 0 432 432" xml:space="preserve">
<g>
	<path fill-rule="evenodd" clip-rule="evenodd" d="M279.171,295.878c1.095-1.551,1.654-3.023,2.223-4.477
		c2.584-6.61,4.302-13.473,5.787-20.395c0.939-4.377,1.753-8.782,2.648-13.17c0.239-1.172,0.164-2.335,0.029-3.499
		c-0.58-5.076-0.692-10.174-0.465-15.265c0.213-4.787,0.92-9.526,2.379-14.118c1.219-3.835,3.068-7.323,5.85-10.267
		c2.462-2.608,5.479-3.361,8.929-2.565c1.274,0.294,2.35,0.952,3.315,1.809c1.078,0.956,1.963,2.077,2.665,3.327
		c2.367,4.203,4.135,8.621,4.8,13.437c0.193,1.386,0.12,2.747-0.221,4.091c-0.476,1.861-1.689,3.095-3.406,3.873
		c-2.058,0.929-4.244,1.406-6.432,1.873c-1.99,0.425-3.987,0.835-5.994,1.138c-0.785,0.119-1.028,0.401-0.981,1.151
		c0.152,2.338,0.231,4.68,0.398,7.018c0.481,6.567,1.539,13.042,3.313,19.388c1.15,4.127,2.451,8.208,4.619,11.935
		c1.686,2.902,1.393,2.791,3.986,0.688c1.641-1.326,2.877-3.022,4.036-4.769c4.164-6.283,6.94-13.119,8.155-20.573
		c0.459-2.812,0.984-5.614,1.292-8.451c0.062-0.55,0.214-1.104,0.404-1.626c0.316-0.861,0.841-1.188,1.747-1.192
		c1.16-0.007,1.366,0.387,1.178,1.572c-0.373,2.309-0.723,4.629-0.927,6.958c-0.909,10.391-4.987,19.551-10.772,28.061
		c-0.484,0.713-1.063,1.368-1.621,2.028c-3.009,3.571-7.64,3.991-11.411,2.328c-2.479-1.092-4.45-2.836-6.142-4.92
		c-2.48-3.055-3.998-6.601-5.277-10.275c-0.175-0.504-0.177-1.112-0.766-1.571c-0.563,2.957-1.077,5.834-1.665,8.698
		c-1.164,5.69-2.558,11.319-4.567,16.779c-0.548,1.484-1.167,2.932-2.031,4.268c-1.234,1.91-3.021,2.728-5.252,2.897
		c-3.969,0.301-6.738-1.402-8.668-4.78c-2.195-3.848-3.49-8.02-4.513-12.287c-1.281-5.358-1.996-10.809-2.501-16.29
		c-0.4-4.363-0.719-8.73-0.908-13.107c-0.007-0.144-0.056-0.286-0.109-0.551c-0.58,0.467-0.604,1.121-0.793,1.655
		c-2.461,6.942-5.549,13.571-9.79,19.624c-1.905,2.72-4.003,5.26-6.56,7.422c-4.865,4.115-12.492,3.917-17.024-1.656
		c-3.912-4.807-6.306-10.315-7.589-16.325c-1.624-7.611-1.278-15.183,0.626-22.704c0.063-0.247,0.135-0.491,0.21-0.734
		c0.169-0.545,0.031-0.856-0.591-0.941c-0.855-0.118-1.696-0.373-2.553-0.444c-3.299-0.271-6.604-0.131-10.003-0.121
		c-0.055,1.817,0.309,3.505,0.454,5.203c0.272,3.154,0.339,6.31,0.271,9.466c-0.169,7.881-1.217,15.626-3.732,23.13
		c-1.332,3.977-3.111,7.747-5.304,11.318c-0.56,0.911-1.194,1.775-1.808,2.65c-4.495,6.391-12.243,6.757-17.832,3.691
		c-3.754-2.06-6.58-5.108-8.964-8.599c-1.96-2.876-3.447-5.999-4.633-9.268c-0.226-0.62-0.451-1.24-0.708-1.946
		c-0.369,0.217-0.426,0.542-0.514,0.856c-0.444,1.621-0.916,3.231-1.537,4.795c-0.34,0.855-0.734,1.681-1.228,2.458
		c-0.442,0.697-0.979,1.305-1.683,1.746c-2.747,1.712-7.324,0.819-9.225-1.812c-0.998-1.375-1.65-2.922-2.209-4.515
		c-1.404-4.006-2.199-8.149-2.761-12.344c-1.292-9.676-1.204-19.41-1.239-29.142c-0.023-6.267-0.121-12.535-0.391-18.797
		c-0.035-0.809-0.155-1.615-0.244-2.514c-0.699,0.271-0.929,0.871-1.252,1.347c-2.02,2.961-3.524,6.191-4.9,9.485
		c-4.124,9.873-6.885,20.109-8.268,30.725c-0.312,2.374-0.591,4.753-0.721,7.137c-0.104,1.923,0.121,3.865,0.156,5.8
		c0.039,2.001-0.521,2.6-2.545,2.782c-0.506,0.047-1.021,0.044-1.527,0.006c-1.91-0.144-2.709-0.776-3.279-2.625
		c-1.007-3.27-1.588-6.632-2.08-10.006c-1.271-8.713-2.264-17.465-3.701-26.154c-0.409-2.456-0.873-4.91-1.92-7.162
		c-0.531-0.134-0.677,0.26-0.892,0.514c-1.995,2.392-3.153,5.225-4.115,8.131c-1.905,5.777-2.88,11.735-3.566,17.777
		c-0.383,3.393,0.365,6.575,0.858,9.828c0.506,3.38,0.925,6.763,0.828,10.188c-0.064,2.233-0.707,2.862-2.97,2.946
		c-0.407,0.015-0.816,0.004-1.222-0.01c-1.404-0.046-2.352-0.665-2.944-2.006c-1.657-3.74-2.836-7.631-3.854-11.578
		c-2.698-10.461-4.77-21.045-6.249-31.747c-0.607-4.387-1.246-8.769-1.688-13.175c-0.112-1.113-0.161-2.238-0.161-3.356
		c-0.001-1.216,0.374-1.826,1.563-2.126c3.293-0.834,5.174,0.022,6.149,2.56c1.325,3.435,2.187,6.994,3.032,10.56
		c1.173,4.953,2.117,9.956,3.082,14.953c0.106,0.547,0.238,1.09,0.393,1.802c0.397-0.571,0.438-1.096,0.545-1.601
		c0.797-3.739,1.76-7.428,3.322-10.936c0.581-1.308,1.334-2.509,2.105-3.716c2.838-4.457,10.633-4.317,13.385,0.415
		c0.954,1.64,1.695,3.363,2.269,5.161c1.464,4.573,2.296,9.282,3.044,14.012c0.037,0.245,0.082,0.491,0.124,0.74
		c0.552-0.083,0.462-0.521,0.544-0.836c2.064-7.731,4.509-15.333,7.67-22.692c0.965-2.245,2.002-4.458,3.25-6.566
		c0.625-1.054,1.318-2.055,2.061-3.031c1.785-2.349,4.199-2.69,6.854-2.125c1.865,0.397,2.922,1.764,3.635,3.423
		c0.785,1.837,1.206,3.782,1.535,5.741c0.811,4.829,1.122,9.704,1.344,14.59c0.294,6.566,0.418,13.137,0.639,19.706
		c0.16,4.731,0.293,9.469,0.79,14.183c0.398,3.746,0.86,7.479,1.991,11.18c0.662-0.23,0.783-0.817,1.007-1.275
		c1.442-2.934,2.402-6.049,3.425-9.142c0.19-0.58,0.365-1.166,0.555-1.746c0.461-1.411,0.571-2.813,0.489-4.333
		c-0.323-6.231,0.164-12.416,1.75-18.479c0.259-0.987,0.648-1.926,1.108-2.838c0.54-1.076,1.414-1.729,2.563-2.004
		c1.002-0.239,2.031-0.235,3.033-0.033c1.444,0.29,2.033,1.003,2.091,2.579c0.066,1.833,0.044,3.67,0.055,5.503
		c0.026,3.722-0.052,7.446,0.089,11.162c0.369,9.689,2.922,18.776,7.848,27.156c1.242,2.117,2.736,4.057,4.61,5.669
		c1.086,0.932,1.196,0.928,2.372,0.129c1.455-0.983,2.63-2.252,3.684-3.637c4.607-6.063,7.542-12.89,9.217-20.287
		c1.515-6.687,2.189-13.465,2.045-20.313c-0.053-2.541-0.195-5.087-0.517-7.616c-0.133-1.029-0.133-1.05-1.237-1.058
		c-2.191-0.013-4.383,0.033-6.577-0.013c-3.883-0.08-7.706-0.583-11.405-1.826c-0.864-0.291-1.721-0.644-2.523-1.074
		c-3.894-2.074-5.438-5.514-5.363-9.739c0.042-2.41,0.686-4.736,1.754-6.912c1.848-3.77,4.888-5.877,9.037-6.443
		c5.455-0.744,9.756,1.303,13.169,5.449c2.739,3.324,4.346,7.228,5.558,11.303c0.504,1.705,0.865,3.453,1.277,5.185
		c0.259,1.086,0.245,1.102,1.418,1.091c2.141-0.021,4.28-0.049,6.422-0.091c2.195-0.042,4.388,0,6.539,0.469
		c0.697,0.154,0.908-0.131,1.092-0.661c0.469-1.35,1.037-2.656,1.675-3.933c1.053-2.109,2.376-4.02,4.05-5.703
		c3.322-3.335,7.342-4.149,11.814-3.428c1.619,0.26,3.174,0.752,4.563,1.653c1.828,1.188,2.895,2.837,2.883,5.076
		c-0.007,1.077-0.36,1.475-1.414,1.62c-1.479,0.203-2.695-0.135-3.52-1.536c-0.646-1.097-1.427-2.118-2.547-2.802
		c-1.53-0.934-2.252-0.849-3.488,0.411c-1.489,1.517-2.484,3.341-3.285,5.287c-1.832,4.459-2.928,9.115-3.5,13.879
		c-0.954,7.923-0.412,15.76,1.736,23.462c0.701,2.507,1.633,4.929,2.824,7.246c0.563,1.088,1.191,2.134,1.996,3.067
		c1.173,1.364,1.275,1.382,2.718,0.391c1.438-0.988,2.694-2.182,3.812-3.513c4.191-4.995,7.416-10.586,10.093-16.504
		c3.688-8.159,6.071-16.727,7.972-25.449c0.449-2.059,0.682-4.108,0.612-6.208c-0.122-3.672,0.298-7.331,0.315-11
		c0.01-2.242,0.029-4.485-0.048-6.724c-0.154-4.741-0.053-9.481,0.058-14.219c0.04-1.625,0.23-3.251,0.465-4.862
		c0.273-1.921,0.354-3.85,0.434-5.784c0.06-1.52,0.465-2.904,1.757-3.891c1.792-1.366,3.458-1.03,5.407,0.111
		c1.703,0.996,1.694,2.28,1.792,3.812c0.167,2.655-0.096,5.297-0.122,7.944c-0.059,5.708-0.011,11.415,0.213,17.121
		c0.219,5.602,0.285,11.207,0.479,16.81c0.222,6.261,0.548,12.519,0.762,18.781c0.154,4.533,0.429,9.058,0.763,13.579
		c0.629,8.531,1.307,17.061,2.98,25.47C277.614,290.414,278.157,293.046,279.171,295.878z M198.068,238.187
		c1.425,0,2.85-0.016,4.274,0.005c0.645,0.009,0.786-0.286,0.662-0.851c-0.295-1.34-0.535-2.693-0.872-4.021
		c-0.954-3.765-2.168-7.426-4.468-10.623c-1.415-1.963-3.082-3.663-5.265-4.773c-2.584-1.316-4.385-0.955-6.533,0.98
		c-0.372,0.338-0.726,0.727-0.993,1.152c-2.195,3.498-3.14,7.274-2.257,11.362c0.515,2.378,1.945,4.114,4.229,5.063
		c0.702,0.291,1.429,0.532,2.165,0.731C191.974,238.013,195.007,238.274,198.068,238.187z M300.262,233.289
		c-0.178,1.537-0.134,2.915-0.14,4.291c-0.005,0.622,0.184,0.996,0.889,0.846c2.779-0.596,5.604-1.009,8.335-1.833
		c1.392-0.419,2.202-1.4,2.624-2.749c0.513-1.646,0.446-3.337,0.198-4.997c-0.558-3.724-1.938-7.16-3.934-10.345
		c-0.651-1.039-1.405-2.005-2.354-2.794c-0.889-0.734-0.982-0.736-1.614,0.267c-1.472,2.353-2.46,4.905-3.031,7.619
		C300.551,226.845,300.301,230.141,300.262,233.289z"/>
	<path fill-rule="evenodd" clip-rule="evenodd" d="M289.699,314.697c0.723-1.746,1.841-2.356,3.844-2.047
		c0.649,0.1,1.283,0.308,1.959,0.474c0.031-0.024,0.15-0.067,0.181-0.145c0.631-1.7,1.289-2.155,3.221-2.021
		c2.532,0.18,3.144,1.09,3.19,3.164c0.085,3.619-0.045,7.233-0.047,10.849c-0.007,11.827-0.81,23.629-0.993,35.451
		c-0.019,1.447-0.308,1.772-1.72,2.033c-0.711,0.131-1.408,0.069-2.117-0.092c-1.029-0.237-1.581-0.85-1.694-1.886
		c-0.02-0.202-0.038-0.405-0.067-0.606c-0.106-0.706-0.062-1.484-0.361-2.094c-0.377-0.766-1.32-0.125-1.949-0.463
		c-1.434-0.773-2.986-0.715-4.547-0.599c-0.301,0.022-0.611-0.013-0.914-0.051c-1.664-0.209-2.82-0.997-3.312-2.698
		c-0.726-2.502-1.2-5.047-1.56-7.62c-0.422-3.029-0.598-6.077-0.777-9.126c-0.078-1.33-0.131-1.347-1.43-1.197
		c-1.672,0.195-3.357,0.136-5.031,0.19c-3.66,0.118-7.322,0.298-10.986,0.365c-4.27,0.077-8.534,0.401-12.803,0.596
		c-1.73,0.079-3.459,0.147-5.189,0.138c-4.94-0.033-9.884-0.18-14.824-0.144c-3.969,0.029-7.938,0.13-11.91,0.09
		c-0.307-0.002-0.611,0-0.916-0.015c-12.366-0.614-24.762-0.426-37.129-1.068c-5.752-0.298-11.512-0.265-17.268-0.308
		c-2.544-0.02-5.093,0.187-7.634,0.138c-2.342-0.045-4.676-0.294-7.014-0.456c-0.356-0.024-0.714-0.04-1.065-0.091
		c-0.482-0.07-0.618,0.172-0.646,0.6c-0.175,2.54-0.525,5.071-0.447,7.624c0.05,1.63-0.035,3.263,0.016,4.888
		c0.039,1.282-0.015,2.575-0.471,3.721c-0.357,0.91-1.113,1.658-1.21,2.73c-0.016,0.198-0.436,0.407-0.708,0.525
		c-0.563,0.246-1.16,0.341-1.785,0.329c-1.738-0.035-3.399-0.558-5.107-0.767c-0.617-0.075-1.344-0.328-1.469-0.943
		c-0.22-1.089-0.99-1.141-1.789-1.257c-1.732-0.25-2.645-1.229-2.99-2.966c-0.635-3.204-0.973-6.441-1.269-9.684
		c-0.683-7.415-0.866-14.842-0.39-22.276c0.133-2.083,0.32-4.164,0.545-6.239c0.178-1.644,0.936-2.327,2.572-2.462
		c0.355-0.03,0.718-0.045,1.07-0.013c1.056,0.094,2.033,0.03,3.095-0.34c1.404-0.49,2.952-0.448,3.997,0.979
		c0.33,0.447,0.706,0.294,1.094,0.219c0.871-0.168,1.719-0.102,2.563,0.158c0.501,0.154,1.019,0.32,1.283,0.765
		c0.275,0.466,0.637,0.555,1.111,0.625c2.019,0.291,2.434,0.745,2.279,2.827c-0.234,3.148-0.566,6.29-0.87,9.433
		c-0.11,1.165-0.254,2.328-0.362,3.494c-0.08,0.914,0.005,1.035,0.838,1.026c8.054-0.085,16.092,0.535,24.141,0.693
		c6.926,0.135,13.854-0.014,20.781-0.083c10.648-0.107,21.296-0.038,31.943,0.146c5.908,0.103,11.819,0.146,17.729,0.086
		c12.128-0.122,24.25,0.062,36.377,0.204c1.154,0.014,1.174,0.01,1.221-1.139c0.143-3.563,0.201-7.129,0.694-10.669
		c0.14-1.016,0.349-2.009,0.767-2.943c0.459-1.021,1.264-1.545,2.393-1.609C287.781,313.031,288.412,313.272,289.699,314.697z"/>
	<g>
		<path fill-rule="evenodd" clip-rule="evenodd" d="M106.313,139.296c2.18-0.139,4.246-0.443,6.33-0.46
			c10.207-0.083,19.109,3.184,26.32,10.5c4.873,4.947,7.457,11.031,7.756,17.963c0.193,4.479-1.146,8.542-4.234,11.928
			c-6.018,6.593-13.365,10.893-22.074,12.857c-3.889,0.877-7.826,1.295-11.811,1.177c-1.529-0.046-3.051-0.217-4.537-0.561
			c-1.156-0.267-2.301-0.366-3.48-0.268c-0.607,0.051-1.232,0.04-1.83-0.054c-1.344-0.208-2.297-0.836-2.76-2.262
			c-2.471-7.597-4.924-15.204-7.545-22.75c-4.018-11.562-7.289-23.312-9.396-35.376c-0.982-5.619-1.762-11.265-2.301-16.944
			c-0.576-6.096-0.826-12.2-0.533-18.315c0.154-3.203,0.498-6.393,0.992-9.564c0.049-0.301,0.211-0.622,0.15-0.897
			c-0.43-1.99,0.697-3.53,1.461-5.172c0.127-0.272,0.291-0.563,0.518-0.747c3.633-2.963,7.314-5.844,11.762-7.555
			c4.105-1.579,8.328-2.592,12.707-3.071c5.098-0.557,10.111-0.25,14.875,1.646c8.314,3.307,14.211,9.038,16.635,17.852
			c1.631,5.929,0.734,11.725-1.465,17.354c-2.15,5.507-5.324,10.426-9.021,15.004c-5.08,6.299-10.898,11.838-17.455,16.593
			c-0.33,0.24-0.648,0.494-0.967,0.746C106.379,138.942,106.385,139.004,106.313,139.296z M92.123,141.27
			c0.471-0.093,0.785-0.364,1.113-0.598c6.213-4.392,12.059-9.213,17.26-14.79c4.121-4.418,7.744-9.194,10.543-14.56
			c2.393-4.592,4.197-9.371,4.447-14.633c0.381-8.06-2.582-14.597-8.805-19.686c-3.166-2.586-6.768-3.847-10.881-3.637
			c-1.734,0.088-3.438,0.346-5.133,0.688c-5.51,1.112-10.334,3.624-14.662,7.166c-0.654,0.534-0.887,1.067-0.795,1.958
			c0.23,2.277,0.352,4.571,0.395,6.86c0.127,6.624,0.658,13.22,1.35,19.803c0.977,9.268,2.477,18.458,4.275,27.601
			C91.482,138.724,91.563,140.061,92.123,141.27z M137.727,167.753c-0.064-0.915-0.07-1.836-0.207-2.74
			c-0.9-6.118-3.58-11.355-8.162-15.494c-5.262-4.752-11.408-7.393-18.635-6.936c-3.451,0.218-6.861,0.804-10.209,1.704
			c-2.109,0.568-4.242,1.061-6.17,2.155c-1.078,0.609-1.102,0.595-0.811,1.843c3.129,13.324,6.377,26.616,9.82,39.862
			c0.191,0.742,0.549,0.945,1.225,1.066c2.938,0.528,5.879,0.535,8.816,0.104c7.662-1.127,14.178-4.495,19.604-10.027
			C136.156,176.071,137.846,172.301,137.727,167.753z"/>
		<path fill-rule="evenodd" clip-rule="evenodd" d="M209.229,182.943c0.229-2.729,0.977-5.903,1.627-9.093
			c3.51-17.251,7.242-34.457,10.504-51.76c1.355-7.201,2.48-14.442,3.486-21.701c0.773-5.594,1.557-11.187,2.293-16.785
			c0.305-2.321,0.506-4.655,0.746-6.983c0.162-1.551,0.611-2.064,2.105-2.34c0.4-0.073,0.809-0.129,1.215-0.152
			c2.521-0.138,3.773,0.688,4.633,3.054c1.18,3.265,1.832,6.664,2.561,10.047c1.793,8.357,3.641,16.703,5.455,25.056
			c2.355,10.84,4.451,21.734,6.623,32.612c0.996,4.99,1.936,9.992,2.855,14.996c0.984,5.349,2.121,10.674,2.854,16.064
			c0.438,3.227,0.883,6.451,1.352,9.673c0.299,2.023-0.25,2.676-2.271,2.953c-0.549,0.076-1.119,0.07-1.676,0.027
			c-1.486-0.111-2.557-0.722-3.113-2.244c-2.111-5.785-4.227-11.565-5.479-17.617c-0.414-1.988-0.43-1.913-2.486-1.664
			c-3.379,0.41-6.771,0.744-10.164,1.06c-3.34,0.311-6.688,0.563-10.031,0.832c-0.559,0.045-1.119,0.045-1.68,0.061
			c-1.625,0.043-1.604,0.049-1.979,1.563c-0.787,3.16-1.592,6.316-2.41,9.467c-0.371,1.428-0.871,2.826-1.17,4.267
			c-0.293,1.399-1.189,1.926-2.455,2.092c-0.201,0.025-0.408,0.023-0.611,0.022C209.803,186.438,209.086,185.679,209.229,182.943z
			 M219.861,165.269c0.543,0.261,0.902,0.172,1.244,0.12c5.332-0.827,10.707-1.257,16.07-1.812c1.871-0.192,3.74-0.422,5.613-0.597
			c0.568-0.055,0.867-0.222,0.725-0.841c-0.055-0.248-0.076-0.504-0.127-0.753c-4.279-20.428-8.49-40.869-12.203-61.411
			c-0.043-0.241-0.059-0.515-0.51-0.532C228.496,121.604,224.188,143.428,219.861,165.269z"/>
		<path fill-rule="evenodd" clip-rule="evenodd" d="M270.027,93.311c0.047,7.2,1.145,14.2,4.125,20.813
			c3.385,7.51,8.557,13.564,15.115,18.498c4.396,3.307,8.924,6.441,13.104,10.031c5.668,4.87,10.436,10.443,13.406,17.395
			c1.533,3.585,2.58,7.287,2.596,11.228c0.023,5.077-1.758,9.453-5.115,13.212c-3.594,4.021-8.135,6.392-13.361,7.462
			c-4.467,0.914-8.914,0.751-13.248-0.739c-6.717-2.308-10.879-7.282-13.842-13.459c-0.707-1.478-1.152-3.045-1.248-4.694
			c-0.1-1.683,0.266-3.24,1.262-4.621c0.818-1.135,2.266-1.572,3.521-1.066c0.59,0.238,0.936,0.575,0.555,1.284
			c-1.191,2.212-0.865,4.429,0.07,6.621c1.867,4.358,4.707,7.965,8.494,10.81c1.854,1.394,3.949,2.318,6.23,2.752
			c2.271,0.432,4.488,0.117,6.541-0.913c5.816-2.918,8.898-7.735,9.482-14.153c0.408-4.537-0.789-8.78-2.654-12.869
			c-3.273-7.16-8.279-12.917-14.4-17.754c-3.998-3.158-8.115-6.165-12.078-9.364c-6.951-5.614-12.256-12.478-15.361-20.927
			c-1.555-4.232-2.393-8.613-2.74-13.108c-0.455-5.896-0.102-11.699,1.672-17.371c0.857-2.737,1.98-5.347,3.799-7.606
			c2.314-2.874,5.35-4.286,8.994-4.501c2.914-0.171,5.656,0.395,8.25,1.762c5.064,2.672,7.752,6.886,8.266,12.544
			c0.137,1.525,0.23,3.059-0.031,4.573c-0.313,1.842-1.199,2.573-2.865,2.506c-1.305-0.052-1.74-0.397-1.938-1.681
			c-0.271-1.761-0.539-3.523-0.961-5.254c-0.75-3.066-1.914-5.91-4.371-8.057c-1.162-1.014-2.457-1.795-3.848-2.452
			c-0.813-0.383-1.439-0.251-2.078,0.333c-0.951,0.871-1.695,1.892-2.293,3.027c-1.52,2.878-2.229,5.996-2.713,9.18
			C270.031,88.929,270.018,91.117,270.027,93.311z"/>
		<path fill-rule="evenodd" clip-rule="evenodd" d="M331.353,79.55c0.342,2.122,0.703,4.221,1.014,6.328
			c0.588,3.979,1.033,7.975,1.373,11.983c0.506,5.935,1.017,11.869,1.461,17.81c0.313,4.165,0.521,8.336,0.777,12.504
			c0.465,7.624,0.969,15.246,1.385,22.874c0.346,6.359,0.596,12.724,0.424,19.097c-0.127,4.685-0.244,9.371-0.383,14.056
			c-0.028,0.967-0.152,1.929-0.197,2.895c-0.043,0.897-0.564,1.4-1.336,1.673c-1.334,0.472-2.684,0.493-4.053,0.105
			c-1-0.283-1.562-0.878-1.676-1.921c-0.302-2.833-0.636-5.664-0.934-8.498c-0.482-4.606-0.952-9.214-1.408-13.822
			c-0.266-2.684-0.496-5.373-0.734-8.059c-0.394-4.514-0.805-9.026-1.166-13.542c-0.287-3.604-0.52-7.211-0.754-10.819
			c-0.484-7.418-1.023-14.833-1.402-22.257c-0.305-6.001-0.627-12.002-0.802-18.012c-0.101-3.465-0.122-6.928-0.165-10.392
			c-0.008-0.76,0.49-1.715,0.022-2.216c-0.579-0.616-1.64-0.253-2.485-0.313c-4.92-0.348-9.859-0.501-14.75-1.211
			c-1.205-0.175-2.404-0.418-3.545-0.869c-0.426-0.166-0.85-0.346-1.244-0.573c-0.488-0.283-0.994-0.621-0.908-1.288
			c0.084-0.648,0.65-0.894,1.17-1.085c1.222-0.451,2.504-0.434,3.777-0.324c3.858,0.334,7.727,0.442,11.596,0.573
			c3.561,0.12,7.133,0.191,10.689,0.375c5.496,0.285,10.994,0.39,16.492,0.487c3.111,0.054,6.191,0.388,9.252,0.943
			c0.85,0.156,1.699,0.373,2.428,0.868c0.898,0.61,0.842,1.384-0.154,1.844c-1.092,0.502-2.287,0.473-3.451,0.517
			c-1.832,0.067-3.668,0.065-5.502,0.072c-3.313,0.011-6.613,0.377-9.928,0.267c-1.172-0.038-2.344-0.004-3.51-0.164
			C332.282,79.394,331.817,79.317,331.353,79.55z"/>
		<path fill-rule="evenodd" clip-rule="evenodd" d="M157.602,79.374c1.41,5.087,1.752,10.316,2.146,15.541
			c0.523,6.91,0.715,13.833,0.934,20.757c0.244,7.688,0.584,15.373,0.916,23.058c0.127,2.95,0.346,5.896,0.535,8.843
			c0.082,1.309,0.094,1.334,1.348,1.434c3.15,0.249,6.262,0.772,9.381,1.222c0.615,0.088,1.184,0.122,1.799,0.001
			c0.857-0.165,1.732-0.1,2.555,0.242c1.143,0.473,1.266,1.478,0.252,2.211c-0.715,0.52-1.553,0.761-2.432,0.795
			c-3.619,0.137-7.227-0.05-10.824-0.478c-0.252-0.031-0.502-0.1-0.752-0.113c-0.871-0.044-0.975,0.061-0.902,0.932
			c0.176,2.081,0.33,4.162,0.539,6.238c0.545,5.471,1.25,10.92,2.377,16.307c0.377,1.794,0.805,3.574,1.518,5.275
			c0.707,1.692,1.842,2.672,3.773,2.841c3.758,0.326,7.518,0.689,11.285,0.48c3.607-0.2,7.168-0.828,10.6-2.032
			c0.871-0.306,1.666-0.69,2.35-1.361c0.941-0.924,2.863-1.072,4.012-0.438c0.826,0.455,0.988,1.346,0.381,2.228
			c-0.541,0.784-1.359,1.215-2.193,1.607c-2.404,1.136-4.945,1.85-7.525,2.458c-4.289,1.015-8.641,1.42-13.031,1.136
			c-3.293-0.213-6.596-0.404-9.846-1.107c-3.477-0.754-5.979-2.648-7.512-5.879c-1.781-3.75-2.908-7.712-3.846-11.729
			c-1.576-6.752-2.455-13.617-3.133-20.511c-0.609-6.183-1.068-12.376-1.428-18.576c-0.238-4.118-0.344-8.246-0.443-12.37
			c-0.131-5.501-0.307-11.004-0.211-16.509c0.086-4.941,0.143-9.885,0.336-14.823c0.086-2.181,0.211-4.371,0.527-6.543
			c0.211-1.453,0.807-2.429,2.139-3.256c3.139-1.948,6.58-2.642,10.145-2.972c9.652-0.893,18.65,1.692,27.455,5.243
			c0.563,0.228,1.098,0.538,1.613,0.861c0.432,0.271,0.869,0.614,0.807,1.203c-0.063,0.646-0.584,0.943-1.115,1.132
			c-0.871,0.312-1.781,0.462-2.703,0.279c-0.699-0.138-1.396-0.3-2.068-0.531c-5.105-1.75-10.297-3.166-15.619-4.086
			c-4.264-0.738-8.504-0.73-12.703,0.431C158.545,78.951,158.053,79.062,157.602,79.374z"/>
	</g>
</g>
</svg>
